<svg width="64" height="64" viewBox="0 0 64 64" fill="none" xmlns="http://www.w3.org/2000/svg">
<path fill-rule="evenodd" clip-rule="evenodd" d="M32 0.00440216C30.9979 -0.0444807 29.9796 0.313743 29.2143 1.07907L1.07899 29.2143C0.313734 29.9796 -0.0445207 30.9979 0.00440996 32.0001H17.3162C17.3081 31.5556 17.4737 31.1087 17.8128 30.7695L30.7698 17.8126C31.1088 17.4736 31.5557 17.308 32 17.3159V0.00440216Z" fill="#60A9ED"/>
<path fill-rule="evenodd" clip-rule="evenodd" d="M32 63.9957C30.9979 64.0445 29.9796 63.6863 29.2143 62.921L1.07899 34.7858C0.313734 34.0204 -0.0445207 33.0021 0.00440996 32H17.3162C17.3081 32.4444 17.4737 32.8914 17.8128 33.2305L30.7698 46.1874C31.1088 46.5265 31.5557 46.6921 32 46.6841V63.9957Z" fill="#F18ED5"/>
<path fill-rule="evenodd" clip-rule="evenodd" d="M32 0.00440216C33.0021 -0.0444807 34.0204 0.313743 34.7857 1.07907L62.921 29.2143C63.6863 29.9796 64.0445 30.9979 63.9956 32.0001H46.6838C46.6919 31.5556 46.5263 31.1087 46.1872 30.7695L33.2302 17.8126C32.8912 17.4736 32.4443 17.308 32 17.3159V0.00440216Z" fill="#F06279"/>
<path fill-rule="evenodd" clip-rule="evenodd" d="M32 63.9957C33.0021 64.0445 34.0204 63.6863 34.7857 62.921L62.921 34.7858C63.6863 34.0204 64.0445 33.0021 63.9956 32H46.6838C46.6919 32.4444 46.5263 32.8914 46.1872 33.2305L33.2302 46.1874C32.8912 46.5265 32.4443 46.6921 32 46.6841V63.9957Z" fill="#80C9D3"/>
</svg>
