<svg width="692" height="693" viewBox="0 0 692 693" fill="none" xmlns="http://www.w3.org/2000/svg">
<path d="M234.751 99.294L88.838 245.21L134.717 291L76.791 348.95C76.182 348.395 74.8291 347.257 73.5821 346.012C55.8947 328.345 38.218 310.669 20.552 292.983C-6.96397 265.349 -6.82797 224.072 20.828 196.414C75.976 141.26 131.128 86.1097 186.283 30.963C213.404 3.84999 254.942 3.86903 282.083 31.003C328.287 77.189 374.482 123.384 420.668 169.588C447.162 196.088 447.73 236.826 422.019 264.037C418.37 267.899 414.753 271.793 411.119 275.674L234.751 99.294Z" fill="#004D94"/>
<path d="M274.711 281.715L98.677 457.744L244.432 603.497L289.811 557.529L347.778 615.483C347.378 615.924 346.364 617.172 345.231 618.306C327.098 636.462 308.953 654.607 290.798 672.74C284.627 678.962 277.283 683.899 269.192 687.264C261.1 690.628 252.421 692.355 243.658 692.344C234.895 692.332 226.22 690.582 218.138 687.196C210.055 683.809 202.724 678.854 196.57 672.615C141.046 617.152 85.5493 561.66 30.08 506.141C2.80096 478.859 2.85499 437.432 30.235 410.035C75.9323 364.309 121.642 318.597 167.365 272.898C195.832 244.435 236.009 244.181 264.975 272.27C268.181 275.379 271.386 278.49 274.711 281.715Z" fill="#AA007B"/>
<path d="M416.571 411.779L592.538 235.817L447.253 90.5491L402.199 135.773C382.263 115.837 363.249 96.8251 343.878 77.4551C344.011 77.3091 345.061 76.0761 346.201 74.9351C363.986 57.1297 381.78 39.3338 399.583 21.5471C426.862 -5.64188 468.052 -5.95297 495.356 21.233C550.984 76.6164 606.49 132.122 661.875 187.75C688.557 214.55 688.187 256.027 661.449 282.768C615.018 329.202 568.584 375.635 522.149 422.068C515.958 428.329 508.587 433.3 500.462 436.693C492.336 440.086 483.619 441.833 474.813 441.833C466.008 441.833 457.291 440.086 449.165 436.693C441.04 433.3 433.669 428.329 427.478 422.068C424.062 418.661 420.467 415.442 416.571 411.779Z" fill="#DC0124"/>
<path d="M280.662 417.761L456.862 593.971L601.836 447.395L556.488 402.15L614.318 344.31C615.009 344.955 616.325 346.11 617.564 347.351C635.245 365.018 652.92 382.689 670.587 400.366C697.929 427.715 698.555 468.675 671.361 496.055C615.942 551.855 560.329 607.463 504.52 662.878C477.301 689.878 436.352 689.309 409.146 662.169C363.023 616.157 316.954 570.09 270.939 523.969C243.557 496.539 243.617 455.214 270.932 427.845C274.202 424.575 277.357 421.193 280.662 417.761Z" fill="#0092A7"/>
<path d="M402.162 283.354L345.613 339.912C344.49 338.869 343.172 337.721 341.939 336.488C315.072 309.633 288.21 282.772 261.351 255.905C234 228.535 234 187.172 261.326 159.786C264.382 156.723 267.407 153.63 269.907 151.098L402.162 283.354Z" fill="#DB0124"/>
<path d="M339.745 347.643C338.248 348.525 336.827 349.53 335.498 350.649C309.199 376.879 282.924 403.133 256.674 429.412C226.918 459.121 186.639 459.069 156.882 429.343C154.412 426.875 151.826 424.523 148.087 420.971L280.905 289.771L339.745 347.643Z" fill="#004D94"/>
<path d="M541.972 271.261L409.692 403.538L352.584 346.438C353.532 345.426 354.624 344.193 355.784 343.031C382.644 316.157 409.511 289.29 436.384 262.431C464.019 234.842 505.12 234.931 532.805 262.568C535.869 265.616 539.082 268.523 541.972 271.261Z" fill="#0092A7"/>
<path d="M289.601 410.235C307.807 392.028 326.868 372.963 346.101 353.735C346.658 354.123 347.188 354.549 347.687 355.009C376.16 383.566 404.941 411.825 432.987 440.795C456.625 465.212 456.144 505.895 432.846 530.701C428.972 534.826 425.068 538.922 421.769 542.406L289.601 410.235Z" fill="#AA007B"/>
</svg>
