<svg width="172" height="172" viewBox="0 0 172 172" fill="none" xmlns="http://www.w3.org/2000/svg">
<path fill-rule="evenodd" clip-rule="evenodd" d="M86 0.0118308C83.3069 -0.119542 80.5703 0.843185 78.5134 2.90001L2.8998 78.5134C0.843161 80.5703 -0.119649 83.307 0.0118518 86.0002H46.5366C46.515 84.8058 46.96 83.6045 47.8713 82.6931L82.6932 47.8714C83.6045 46.9601 84.8057 46.5151 86 46.5366V0.0118308Z" fill="#60A9ED"/>
<path fill-rule="evenodd" clip-rule="evenodd" d="M86 171.988C83.3069 172.12 80.5703 171.157 78.5134 169.1L2.8998 93.4867C0.843161 91.4299 -0.119649 88.6932 0.0118518 86H46.5366C46.515 87.1944 46.96 88.3957 47.8713 89.3071L82.6932 124.129C83.6045 125.04 84.8057 125.485 86 125.464V171.988Z" fill="#F18ED5"/>
<path fill-rule="evenodd" clip-rule="evenodd" d="M86 0.0118308C88.6931 -0.119542 91.4297 0.843185 93.4866 2.90001L169.1 78.5134C171.157 80.5703 172.12 83.307 171.988 86.0002H125.463C125.485 84.8058 125.04 83.6045 124.129 82.6931L89.3068 47.8714C88.3955 46.9601 87.1943 46.5151 86 46.5366V0.0118308Z" fill="#F06279"/>
<path fill-rule="evenodd" clip-rule="evenodd" d="M86 171.988C88.6931 172.12 91.4297 171.157 93.4866 169.1L169.1 93.4867C171.157 91.4299 172.12 88.6932 171.988 86H125.463C125.485 87.1944 125.04 88.3957 124.129 89.3071L89.3068 124.129C88.3955 125.04 87.1943 125.485 86 125.464V171.988Z" fill="#80C9D3"/>
</svg>
